<?xml version="1.0" encoding="UTF-8"?>
<svg id="Layer_1" data-name="Layer 1" xmlns="http://www.w3.org/2000/svg" viewBox="0 0 330.51 100.62">
  <defs>
    <style>
      .cls-1 {
        letter-spacing: .19em;
      }

      .cls-2 {
        letter-spacing: .23em;
      }

      .cls-3 {
        fill: #7f141c;
      }

      .cls-4 {
        letter-spacing: .21em;
      }

      .cls-5 {
        letter-spacing: .19em;
      }

      .cls-6 {
        letter-spacing: .18em;
      }

      .cls-7 {
        letter-spacing: .2em;
      }

      .cls-8 {
        fill: #808285;
        font-family: Raleway-SemiBold, 'Raleway SemiBold';
        font-size: 24.83px;
        font-weight: 600;
      }

      .cls-9 {
        letter-spacing: .2em;
      }

      .cls-10 {
        letter-spacing: .07em;
      }

      .cls-11 {
        letter-spacing: .07em;
      }

      .cls-12 {
        letter-spacing: .18em;
      }
    </style>
  </defs>
  <g>
    <path class="cls-3" d="m39.82,36.13V8.64c0-1.43-.85-2.5-2.56-3.23-1.17-.48-1.75-1.05-1.75-1.72v-1.85c0-.64.58-.97,1.75-.97h15.23c.99,0,1.48.29,1.48.88v1.93c0,.64-.56,1.21-1.68,1.72-1.75.75-2.63,1.83-2.63,3.22v56.33c0,.89-.65,1.34-1.96,1.34h-2.97c-1.35,0-2.3-.45-2.84-1.34L13.95,19.31v38.91c0,1.45.86,2.54,2.59,3.27,1.15.47,1.72,1.03,1.72,1.68v1.88c0,.64-.58.96-1.74.96H1.47c-.98,0-1.47-.29-1.47-.88v-1.97c0-.61.58-1.17,1.75-1.68,1.71-.75,2.56-1.84,2.56-3.27V8.63c0-1.42-.85-2.5-2.56-3.22-1.17-.47-1.75-1.05-1.75-1.72v-1.84c0-.64.58-.96,1.75-.96h14.23c1.03,0,1.72.08,2.08.23.36.15.72.52,1.07,1.11l20.69,33.91Z"/>
    <path class="cls-3" d="m107.41,50.89c0,5-2.04,8.9-6.13,11.72-4.09,2.82-9.43,4.23-16.04,4.23s-12.02-1.4-16.24-4.19c-4.22-2.79-6.33-6.44-6.33-10.97V8.62c0-1.42-.85-2.5-2.56-3.22-1.17-.5-1.75-1.07-1.75-1.72v-1.84c0-.64.58-.96,1.75-.96h21.02c.99,0,1.48.29,1.48.88v1.93c0,.64-.58,1.21-1.75,1.72-1.71.73-2.56,1.8-2.56,3.22v43.52c0,5.8,3.1,8.71,9.3,8.71,6.78,0,10.17-3.4,10.17-10.21V8.62c0-1.42-.85-2.5-2.56-3.22-1.17-.5-1.75-1.07-1.75-1.72v-1.84c0-.64.58-.96,1.75-.96h15.03c.99,0,1.48.29,1.48.88v1.93c0,.64-.58,1.21-1.75,1.72-1.71.73-2.56,1.8-2.56,3.22v42.27Z"/>
    <path class="cls-3" d="m148.17,5.74v52.48c0,1.45.85,2.54,2.56,3.27,1.17.47,1.75,1.03,1.75,1.68v1.88c0,.64-.58.96-1.75.96h-21.02c-.99,0-1.48-.29-1.48-.88v-1.97c0-.61.58-1.17,1.75-1.68,1.71-.75,2.56-1.84,2.56-3.27V5.74h-2.96c-2.2,0-3.83.52-4.89,1.55-1.06,1.03-2.01,3.31-2.86,6.83-.09.47-.56.71-1.42.71h-2.63c-1.53,0-2.29-.4-2.29-1.21V1.42c0-.95.72-1.42,2.16-1.42.9,0,2.49.11,4.78.34,3.68.36,6.47.54,8.36.54h23.85c1.21-.11,2.7-.26,4.45-.46,2.7-.25,4.18-.38,4.45-.38,1.21,0,1.82.35,1.82,1.05v12.52c0,.81-.58,1.21-1.75,1.21h-2.56c-1.03,0-1.65-.18-1.85-.54-.2-.36-.53-1.27-.98-2.72-.81-2.4-1.64-3.97-2.49-4.71-.85-.74-2.36-1.11-4.51-1.11h-3.03Z"/>
    <path class="cls-3" d="m217.04,66h-46.16c-1.08,0-1.62-.34-1.62-1.01v-1.84c0-.59.74-1.23,2.22-1.93,1.3-.64,1.95-1.65,1.95-3.02V8.63c0-1.45-.83-2.54-2.49-3.27-1.12-.47-1.68-1.03-1.68-1.68V1.68c0-.53.54-.8,1.62-.8h34.63c.63,0,1.82-.04,3.57-.13,1.57-.08,2.56-.13,2.96-.13,1.48,0,2.22.25,2.22.75v12.31c0,.64-.1,1.03-.3,1.15s-.77.19-1.72.19h-2.49c-1.08,0-1.68-.39-1.82-1.17-.5-2.18-1.38-4.04-2.66-5.59s-3.85-2.32-7.71-2.32h-8.49v23.7h3.1c1.93,0,3.26-.23,3.98-.69.72-.46,1.62-1.91,2.7-4.33.36-.78.61-1.21.74-1.3s.54-.13,1.21-.13h2.96c1.17,0,1.75.35,1.75,1.05v15.79c0,.67-.54,1.01-1.62,1.01h-3.1c-.67,0-1.15-.11-1.42-.31s-.63-.86-1.08-1.95c-.81-1.98-1.68-3.19-2.63-3.62-.94-.43-2.25-.65-3.91-.65h-2.7v26.51h9.1c3.37,0,5.7-.5,7.01-1.49,1.3-.99,2.92-3.71,4.85-8.15.45-1.01,1.26-1.51,2.43-1.51h2.9c1.12,0,1.68.35,1.68,1.05v15.08Z"/>
    <path class="cls-3" d="m270.54,50.05c-.45,5.19-2.5,9.29-6.17,12.29-3.66,3-8.41,4.5-14.25,4.5-8.36,0-15.06-2.83-20.11-8.48s-7.58-13.92-7.58-24.8,2.46-19.02,7.38-24.84S241.05,0,248.78,0c3.19,0,6.71.67,10.58,2.02.54.17.94.25,1.21.25.31,0,.76-.17,1.35-.51.31-.28.7-.44,1.15-.47h3.84c.85,0,1.28.41,1.28,1.21v13.74c0,.78-.43,1.17-1.28,1.17h-2.96c-.94,0-1.58-.15-1.92-.46-.34-.31-.8-1.14-1.38-2.51-2.74-6.45-6.36-9.67-10.85-9.67-2.65,0-4.7.84-6.13,2.51-1.44,1.67-2.54,4.84-3.3,9.5-.76,4.66-1.15,9.37-1.15,14.14,0,10.43.94,18.09,2.83,22.98,1.89,4.88,5.19,7.32,9.91,7.32,5.66,0,9.37-3.9,11.13-11.69l7.46.5Z"/>
    <path class="cls-3" d="m325.66,8.63v49.59c0,1.45.86,2.54,2.59,3.27,1.15.47,1.72,1.03,1.72,1.68v1.88c0,.64-.58.96-1.75.96h-20.97c-.99,0-1.48-.29-1.48-.88v-1.97c0-.61.56-1.17,1.68-1.68,1.75-.75,2.63-1.84,2.63-3.27v-24h-15.57v24c0,1.45.85,2.54,2.56,3.27,1.17.47,1.75,1.03,1.75,1.68v1.88c0,.64-.58.96-1.75.96h-21.02c-.99,0-1.48-.29-1.48-.88v-1.97c0-.61.58-1.17,1.75-1.68,1.71-.75,2.56-1.84,2.56-3.27V8.63c0-1.42-.85-2.5-2.56-3.22-1.17-.47-1.75-1.05-1.75-1.72v-1.84c0-.64.58-.96,1.75-.96h21.02c.99,0,1.48.29,1.48.88v1.93c0,.64-.58,1.21-1.75,1.72-1.71.75-2.56,1.83-2.56,3.22v19.73h15.57V8.63c0-1.42-.88-2.5-2.63-3.22-1.17-.47-1.75-1.05-1.75-1.72v-1.84c0-.64.58-.96,1.75-.96h20.97c.99,0,1.48.29,1.48.88v1.93c0,.64-.55,1.21-1.66,1.72-1.72.75-2.59,1.83-2.59,3.22Z"/>
  </g>
  <text class="cls-8" transform="translate(.04 94.41)"><tspan class="cls-5" x="0" y="0">Uni</tspan><tspan class="cls-6" x="49.74" y="0">v</tspan><tspan class="cls-5" x="66.14" y="0">ersi</tspan><tspan class="cls-7" x="121.12" y="0">t</tspan><tspan class="cls-10" x="134.26" y="0">y</tspan><tspan class="cls-2" x="147.79" y="0"> </tspan><tspan class="cls-12" x="158.75" y="0">f</tspan><tspan class="cls-5" x="170.38" y="0">o</tspan><tspan class="cls-11" x="188.7" y="0">r</tspan><tspan class="cls-2" x="198.66" y="0"> </tspan><tspan class="cls-9" x="209.62" y="0">I</tspan><tspan class="cls-1" x="220.5" y="0">ndust</tspan><tspan class="cls-4" x="303.5" y="0">r</tspan><tspan class="cls-11" x="316.93" y="0">y</tspan></text>
</svg>